<svg version="1.1" id="Layer_1" xmlns="http://www.w3.org/2000/svg" xmlns:xlink="http://www.w3.org/1999/xlink" x="0px" y="0px"
	 width="100%" viewBox="0 0 500 500" enable-background="new 0 0 500 500" xml:space="preserve">
<path fill="#000000" opacity="1.000000" stroke="none" 
	d="
M271.000000,501.000000 
	C180.666687,501.000000 90.833374,501.000000 1.000048,501.000000 
	C1.000032,334.333405 1.000032,167.666794 1.000016,1.000138 
	C167.666565,1.000092 334.333130,1.000092 500.999756,1.000046 
	C500.999847,167.666519 500.999847,334.333038 500.999939,500.999786 
	C424.500000,501.000000 348.000000,501.000000 271.000000,501.000000 
M84.934204,367.952942 
	C84.934204,367.952942 84.916954,367.869537 84.209885,368.211273 
	C82.830940,372.770782 81.452003,377.330322 79.915154,382.679840 
	C78.504395,387.424103 77.093636,392.168396 75.125191,397.506073 
	C75.029282,406.377625 76.992828,407.935944 85.383675,405.280609 
	C90.058327,403.801239 94.624573,401.979279 100.090218,400.083313 
	C110.981102,396.382904 121.894257,392.746552 132.757492,388.966705 
	C147.977615,383.670776 163.160568,378.268097 178.657776,372.884979 
	C178.859177,372.775055 178.943954,372.606506 179.529083,372.028961 
	C179.819916,371.659973 180.110733,371.290955 180.700974,370.878052 
	C180.901901,370.758606 180.977875,370.584625 181.460831,369.981964 
	C181.913788,369.312042 182.366745,368.642120 183.117065,367.356293 
	C186.782761,364.042908 190.620880,360.899048 194.079224,357.381805 
	C201.924362,349.403015 209.549210,341.208038 217.343094,333.178070 
	C219.036758,331.433105 221.212875,330.156799 222.909531,328.414185 
	C228.009949,323.175507 232.864853,317.694458 238.038681,312.531555 
	C243.513794,307.068054 249.377258,301.992737 254.831467,296.509552 
	C261.750366,289.553864 268.351562,282.283051 275.229919,275.285919 
	C282.804749,267.580353 290.553925,260.046478 298.198090,252.408722 
	C303.740540,246.870880 309.222504,241.272568 314.756256,235.725952 
	C318.715271,231.757706 322.715424,227.830475 327.442780,223.992538 
	C344.652069,206.685669 361.861359,189.378815 379.705536,171.852539 
	C393.373749,158.201904 407.120239,144.628235 420.665741,130.856918 
	C425.125519,126.322800 427.359283,120.493034 427.896088,114.169586 
	C428.881531,102.561111 422.461151,94.757790 413.898529,87.373825 
	C405.445068,78.890320 396.655945,70.711151 388.620575,61.848614 
	C377.842041,49.960510 356.027557,51.472527 345.924225,63.497681 
	C339.898102,70.670021 333.152832,77.254456 326.535614,83.909050 
	C320.542633,89.935898 314.284912,95.699471 307.520477,101.955482 
	C291.329895,118.249123 275.139313,134.542770 258.452698,151.031555 
	C258.282318,151.326523 258.111969,151.621490 257.421936,152.103714 
	C256.999512,152.664536 256.577087,153.225357 255.943848,154.498138 
	C254.887558,155.245468 253.700699,155.861313 252.795151,156.760468 
	C243.595474,165.895111 234.408173,175.042770 225.284088,184.252853 
	C215.468628,194.160812 205.729279,204.144150 195.947968,214.085983 
	C185.994812,224.202515 176.114059,234.392227 166.043365,244.390549 
	C159.015671,251.367767 151.613617,257.967529 144.573761,264.932983 
	C135.888687,273.526215 127.314117,282.236206 118.874916,291.070679 
	C114.719299,295.420990 110.975739,300.164856 106.337410,305.092896 
	C105.989258,305.449524 105.465431,305.745636 105.318672,306.171661 
	C101.660316,316.791229 97.972244,327.401459 94.439102,338.062958 
	C91.813019,345.987366 89.396942,353.981415 86.222404,362.278351 
	C85.766335,364.160156 85.310272,366.041962 84.934204,367.952942 
M327.563721,448.941650 
	C327.751068,448.639282 327.938416,448.336914 329.046661,448.010010 
	C336.127533,447.673340 343.209808,447.364166 350.288940,446.993958 
	C362.619141,446.349152 374.959015,445.829987 387.272919,444.950867 
	C398.018738,444.183624 408.756012,443.169159 419.445984,441.849792 
	C421.749512,441.565521 423.834015,439.506775 426.019409,438.265411 
	C423.691589,437.167358 421.440155,435.344666 419.023438,435.089722 
	C404.225067,433.528961 389.406189,432.073059 374.561188,431.070007 
	C359.766144,430.070312 344.932404,429.643494 329.958160,428.444580 
	C329.647552,428.338287 329.336945,428.231995 328.098022,427.963715 
	C313.467499,427.972198 298.836945,427.973358 284.206421,427.990662 
	C249.130966,428.032166 214.055527,428.081238 178.436432,428.066406 
	C178.251053,428.367188 178.065674,428.667969 176.958389,428.993896 
	C169.206085,429.328186 161.451523,429.617004 153.701935,430.005646 
	C134.279099,430.979706 114.848869,431.848755 95.443245,433.096588 
	C90.005028,433.446320 84.612564,434.834839 79.266556,436.044830 
	C78.038414,436.322815 77.088379,437.829529 76.010361,438.770782 
	C77.084221,439.526642 78.073128,440.739563 79.246933,440.957764 
	C83.852547,441.813843 88.501953,442.492249 93.161476,442.989319 
	C106.311333,444.392059 119.449303,446.077087 132.638855,446.889679 
	C146.357941,447.734894 160.131836,447.690674 174.041901,448.555237 
	C174.352386,448.661530 174.662888,448.767792 175.901672,449.036224 
	C196.351334,449.026154 216.800995,449.026245 237.250641,449.003601 
	C267.172577,448.970428 297.094482,448.920990 327.563721,448.941650 
z"/>
<path fill="#E6E6E6" opacity="1.000000" stroke="none" 
	d="
M178.980072,428.127258 
	C214.055527,428.081238 249.130966,428.032166 284.206421,427.990662 
	C298.836945,427.973358 313.467499,427.972198 328.692688,428.241058 
	C329.540649,428.709656 329.816742,428.858704 330.115631,428.965485 
	C344.932404,429.643494 359.766144,430.070312 374.561188,431.070007 
	C389.406189,432.073059 404.225067,433.528961 419.023438,435.089722 
	C421.440155,435.344666 423.691589,437.167358 426.019409,438.265442 
	C423.834015,439.506775 421.749512,441.565521 419.445984,441.849792 
	C408.756012,443.169159 398.018738,444.183624 387.272919,444.950867 
	C374.959015,445.829987 362.619141,446.349152 350.288940,446.993958 
	C343.209808,447.364166 336.127533,447.673340 328.366425,448.116638 
	C327.376190,448.352997 327.152954,448.571411 327.016418,448.878479 
	C297.094482,448.920990 267.172577,448.970428 237.250641,449.003601 
	C216.800995,449.026245 196.351334,449.026154 175.306702,448.758728 
	C174.457672,448.290588 174.181015,448.141968 173.881760,448.035370 
	C160.131836,447.690674 146.357941,447.734894 132.638855,446.889679 
	C119.449303,446.077087 106.311333,444.392059 93.161476,442.989319 
	C88.501953,442.492249 83.852547,441.813843 79.246933,440.957764 
	C78.073128,440.739563 77.084221,439.526642 76.010361,438.770782 
	C77.088379,437.829529 78.038414,436.322815 79.266556,436.044830 
	C84.612564,434.834839 90.005028,433.446320 95.443245,433.096588 
	C114.848869,431.848755 134.279099,430.979706 153.701935,430.005646 
	C161.451523,429.617004 169.206085,429.328186 177.635254,428.882690 
	C178.623993,428.649231 178.846649,428.434509 178.980072,428.127258 
z"/>
<path fill="#FDDB44" opacity="1.000000" stroke="none" 
	d="
M107.045715,304.730621 
	C110.975739,300.164856 114.719299,295.420990 118.874916,291.070679 
	C127.314117,282.236206 135.888687,273.526215 144.573761,264.932983 
	C151.613617,257.967529 159.015671,251.367767 166.043365,244.390549 
	C176.114059,234.392227 185.994812,224.202515 195.947968,214.085983 
	C205.729279,204.144150 215.468628,194.160812 225.284088,184.252853 
	C234.408173,175.042770 243.595474,165.895111 252.795151,156.760468 
	C253.700699,155.861313 254.887558,155.245468 256.354309,154.156403 
	C258.306183,154.493210 260.021759,154.933334 261.350037,155.903656 
	C263.587524,157.538223 265.579254,159.509247 267.789459,161.648941 
	C270.941925,165.279007 273.979279,168.598877 276.655914,171.954926 
	C275.317535,172.540222 274.168793,172.912277 273.388794,173.665970 
	C265.891937,180.910339 258.412445,188.173889 251.015121,195.519714 
	C239.375473,207.078339 227.802170,218.703766 216.202652,230.302780 
	C200.961121,245.543625 185.721924,260.786804 170.480804,276.028046 
	C157.787247,288.721680 145.031586,301.354279 132.453873,314.161682 
	C130.184494,316.472504 128.644150,319.499268 126.383476,322.065521 
	C124.074219,321.654266 122.153145,321.170074 120.222389,321.127777 
	C112.883728,320.966919 109.425423,318.571198 107.511620,311.567383 
	C106.921379,309.407318 107.177254,307.016022 107.045715,304.730621 
z"/>
<path fill="#FAAC2C" opacity="1.000000" stroke="none" 
	d="
M178.912109,372.379272 
	C178.943954,372.606506 178.859177,372.775055 178.020691,372.869385 
	C176.393127,372.927002 175.403763,373.040253 174.412048,373.067200 
	C163.328720,373.368378 158.929794,369.051910 159.054932,358.044556 
	C159.069946,356.722473 158.975204,355.399170 159.242920,353.923401 
	C161.492599,352.223450 163.599808,350.845886 165.343948,349.104706 
	C203.995239,310.518433 242.606445,271.892059 281.225250,233.273209 
	C288.755127,225.743317 296.366211,218.291748 303.759125,210.629684 
	C305.664551,208.654877 306.883911,206.018143 308.726227,203.758392 
	C309.635223,204.040436 310.236450,204.249619 310.912262,204.774811 
	C315.533905,209.676407 320.184814,214.166290 324.557983,218.912064 
	C325.711487,220.163864 326.007446,222.205826 326.697205,223.884949 
	C322.715424,227.830475 318.715271,231.757706 314.756256,235.725952 
	C309.222504,241.272568 303.740540,246.870880 298.198090,252.408722 
	C290.553925,260.046478 282.804749,267.580353 275.229919,275.285919 
	C268.351562,282.283051 261.750366,289.553864 254.831467,296.509552 
	C249.377258,301.992737 243.513794,307.068054 238.038681,312.531555 
	C232.864853,317.694458 228.009949,323.175507 222.909531,328.414185 
	C221.212875,330.156799 219.036758,331.433105 217.343094,333.178070 
	C209.549210,341.208038 201.924362,349.403015 194.079224,357.381805 
	C190.620880,360.899048 186.782761,364.042908 182.633865,367.739838 
	C181.743408,368.867615 181.336151,369.611877 180.928894,370.356110 
	C180.977875,370.584625 180.901901,370.758606 180.159515,370.963684 
	C179.382751,371.492615 179.147430,371.935944 178.912109,372.379272 
z"/>
<path fill="#E44F4F" opacity="1.000000" stroke="none" 
	d="
M308.143921,101.579124 
	C314.284912,95.699471 320.542633,89.935898 326.535614,83.909050 
	C333.152832,77.254456 339.898102,70.670021 345.924225,63.497681 
	C356.027557,51.472527 377.842041,49.960510 388.620575,61.848614 
	C396.655945,70.711151 405.445068,78.890320 413.726227,87.925354 
	C415.276978,96.438461 411.965118,102.541649 406.526459,107.959892 
	C392.180176,122.252220 377.902740,136.613663 363.557343,150.906906 
	C362.286011,152.173584 360.718994,153.143509 359.009430,154.125916 
	C350.522034,145.942703 342.314514,137.884811 333.950073,129.536346 
	C328.232788,123.801521 322.672455,118.357262 316.976929,112.606125 
	C313.942444,108.725868 311.043182,105.152496 308.143921,101.579124 
M383.071594,81.468330 
	C385.336029,79.557053 385.434021,77.664902 383.140625,75.654587 
	C380.521423,73.358681 378.156921,70.729828 375.357483,68.690895 
	C369.932343,64.739532 364.740814,64.897614 360.044769,69.516975 
	C350.337585,79.065674 340.900757,88.889198 331.172760,98.782707 
	C336.927917,104.187523 342.844666,109.744125 349.157806,115.672951 
	C360.072723,104.664482 371.319458,93.321365 383.071594,81.468330 
z"/>
<path fill="#F5DDAD" opacity="1.000000" stroke="none" 
	d="
M106.691559,304.911743 
	C107.177254,307.016022 106.921379,309.407318 107.511620,311.567383 
	C109.425423,318.571198 112.883728,320.966919 120.222389,321.127777 
	C122.153145,321.170074 124.074219,321.654266 126.396591,322.480652 
	C128.228287,327.900269 129.064072,333.059753 131.219452,337.591614 
	C136.097610,347.848297 145.633347,351.770111 155.974319,354.560852 
	C154.926437,356.011658 154.068283,357.421417 152.813995,358.127777 
	C148.212524,360.719086 143.474716,363.067719 138.796753,365.523926 
	C124.453819,373.054779 110.114822,380.593140 95.583511,388.100983 
	C95.392715,388.073395 95.019135,387.978119 94.885605,387.681091 
	C93.164230,385.933533 91.576393,384.483032 89.979912,382.660583 
	C89.333725,379.210938 87.799133,379.549133 85.655388,381.212006 
	C85.248665,381.113098 85.100311,381.025269 84.798538,380.640259 
	C84.362328,379.039764 83.778587,377.717865 83.857979,376.437012 
	C84.035683,373.570343 84.543556,370.724091 84.916954,367.869537 
	C84.916954,367.869537 84.934204,367.952942 85.247192,367.894806 
	C86.002556,365.872589 86.444939,363.908508 86.887329,361.944427 
	C89.396942,353.981415 91.813019,345.987366 94.439102,338.062958 
	C97.972244,327.401459 101.660316,316.791229 105.318672,306.171661 
	C105.465431,305.745636 105.989258,305.449524 106.691559,304.911743 
M101.825310,334.377747 
	C98.818443,342.929138 95.980721,351.545441 92.734428,360.004944 
	C91.074356,364.330963 93.278557,367.191101 96.319206,368.596680 
	C100.187386,370.384796 102.875107,367.529388 104.400101,364.035522 
	C105.516014,361.478882 106.336594,358.791290 107.248932,356.148285 
	C109.716873,348.998840 112.401993,341.911621 114.517166,334.658600 
	C115.561073,331.078979 114.507050,327.496338 110.341667,326.370148 
	C106.619576,325.363861 104.427185,327.425995 103.444084,330.998352 
	C103.184578,331.941345 102.590622,332.792267 101.825310,334.377747 
z"/>
<path fill="#C53837" opacity="1.000000" stroke="none" 
	d="
M359.289337,154.251251 
	C360.718994,153.143509 362.286011,152.173584 363.557343,150.906906 
	C377.902740,136.613663 392.180176,122.252220 406.526459,107.959892 
	C411.965118,102.541649 415.276978,96.438461 413.826416,88.252464 
	C422.461151,94.757790 428.881531,102.561111 427.896088,114.169586 
	C427.359283,120.493034 425.125519,126.322800 420.665741,130.856918 
	C407.120239,144.628235 393.373749,158.201904 379.015381,171.962601 
	C376.849915,171.163147 375.182251,170.461685 373.933441,169.307129 
	C369.221252,164.950546 364.645203,160.446671 359.917908,155.698059 
	C359.641541,155.015884 359.465424,154.633575 359.289337,154.251251 
z"/>
<path fill="#D5D3D2" opacity="1.000000" stroke="none" 
	d="
M360.018188,155.997955 
	C364.645203,160.446671 369.221252,164.950546 373.933441,169.307129 
	C375.182251,170.461685 376.849915,171.163147 378.697937,172.072296 
	C361.861359,189.378815 344.652069,206.685669 327.069977,223.938751 
	C326.007446,222.205826 325.711487,220.163864 324.557983,218.912064 
	C320.184814,214.166290 315.533905,209.676407 311.057312,204.423782 
	C326.298798,188.457230 341.457245,173.145050 356.673889,157.891022 
	C357.545441,157.017365 358.892456,156.618027 360.018188,155.997955 
z"/>
<path fill="#EACE9B" opacity="1.000000" stroke="none" 
	d="
M95.774300,388.128540 
	C110.114822,380.593140 124.453819,373.054779 138.796753,365.523926 
	C143.474716,363.067719 148.212524,360.719086 152.813995,358.127777 
	C154.068283,357.421417 154.926437,356.011658 156.340225,354.503967 
	C157.453156,354.080933 158.192261,354.078674 158.931351,354.076416 
	C158.975204,355.399170 159.069946,356.722473 159.054932,358.044556 
	C158.929794,369.051910 163.328720,373.368378 174.412048,373.067200 
	C175.403763,373.040253 176.393127,372.927002 177.871506,372.882446 
	C163.160568,378.268097 147.977615,383.670776 132.757492,388.966705 
	C121.894257,392.746552 110.981102,396.382904 99.846390,399.795746 
	C98.326469,395.714966 97.050385,391.921753 95.774300,388.128540 
z"/>
<path fill="#E7E6E4" opacity="1.000000" stroke="none" 
	d="
M307.832214,101.767303 
	C311.043182,105.152496 313.942444,108.725868 316.675232,112.768356 
	C310.246460,119.131989 303.856598,124.897774 297.750671,130.950027 
	C287.629089,140.982605 277.690216,151.199509 267.674347,161.338745 
	C265.579254,159.509247 263.587524,157.538223 261.350037,155.903656 
	C260.021759,154.933334 258.306183,154.493210 256.459717,153.800430 
	C256.577087,153.225357 256.999512,152.664536 257.904663,151.890274 
	C258.574524,151.396698 258.761627,151.116547 258.948761,150.836411 
	C275.139313,134.542770 291.329895,118.249123 307.832214,101.767303 
z"/>
<path fill="#3B3B39" opacity="1.000000" stroke="none" 
	d="
M95.583511,388.100952 
	C97.050385,391.921753 98.326469,395.714966 99.421112,399.909973 
	C94.624573,401.979279 90.058327,403.801239 85.383675,405.280609 
	C76.992828,407.935944 75.029282,406.377625 75.722855,397.309998 
	C82.553398,394.068665 88.786263,391.023376 95.019135,387.978119 
	C95.019135,387.978119 95.392715,388.073395 95.583511,388.100952 
z"/>
<path fill="#51504C" opacity="1.000000" stroke="none" 
	d="
M94.885605,387.681091 
	C88.786263,391.023376 82.553398,394.068665 76.001709,397.013306 
	C77.093636,392.168396 78.504395,387.424103 80.337585,382.162354 
	C82.157333,381.409058 83.554649,381.173279 84.951965,380.937469 
	C85.100311,381.025269 85.248665,381.113098 85.892166,381.427002 
	C87.587715,382.112915 88.788132,382.572723 89.988556,383.032532 
	C91.576393,384.483032 93.164230,385.933533 94.885605,387.681091 
z"/>
<path fill="#EFE2C6" opacity="1.000000" stroke="none" 
	d="
M84.798538,380.640259 
	C83.554649,381.173279 82.157333,381.409058 80.416534,381.767334 
	C81.452003,377.330322 82.830940,372.770782 84.563416,368.040405 
	C84.543556,370.724091 84.035683,373.570343 83.857979,376.437012 
	C83.778587,377.717865 84.362328,379.039764 84.798538,380.640259 
z"/>
<path fill="#EFE2C6" opacity="1.000000" stroke="none" 
	d="
M86.554863,362.111389 
	C86.444939,363.908508 86.002556,365.872589 85.207184,367.880219 
	C85.310272,366.041962 85.766335,364.160156 86.554863,362.111389 
z"/>
<path fill="#EACE9B" opacity="1.000000" stroke="none" 
	d="
M181.194855,370.169037 
	C181.336151,369.611877 181.743408,368.867615 182.485184,368.047791 
	C182.366745,368.642120 181.913788,369.312042 181.194855,370.169037 
z"/>
<path fill="#EACE9B" opacity="1.000000" stroke="none" 
	d="
M179.220596,372.204102 
	C179.147430,371.935944 179.382751,371.492615 180.009811,370.985626 
	C180.110733,371.290955 179.819916,371.659973 179.220596,372.204102 
z"/>
<path fill="#FAFAFA" opacity="1.000000" stroke="none" 
	d="
M178.708252,428.096832 
	C178.846649,428.434509 178.623993,428.649231 178.096222,428.870117 
	C178.065674,428.667969 178.251053,428.367188 178.708252,428.096832 
z"/>
<path fill="#F9F9F9" opacity="1.000000" stroke="none" 
	d="
M258.700745,150.933990 
	C258.761627,151.116547 258.574524,151.396698 258.164490,151.796646 
	C258.111969,151.621490 258.282318,151.326523 258.700745,150.933990 
z"/>
<path fill="#F9F9F9" opacity="1.000000" stroke="none" 
	d="
M330.036896,428.705017 
	C329.816742,428.858704 329.540649,428.709656 329.156860,428.322021 
	C329.336945,428.231995 329.647552,428.338287 330.036896,428.705017 
z"/>
<path fill="#F9F9F9" opacity="1.000000" stroke="none" 
	d="
M173.961823,448.295288 
	C174.181015,448.141968 174.457672,448.290588 174.842560,448.677643 
	C174.662888,448.767792 174.352386,448.661530 173.961823,448.295288 
z"/>
<path fill="#F6F6F6" opacity="1.000000" stroke="none" 
	d="
M327.290070,448.910065 
	C327.152954,448.571411 327.376190,448.352997 327.905945,448.128876 
	C327.938416,448.336914 327.751068,448.639282 327.290070,448.910065 
z"/>
<path fill="#FCBC2D" opacity="1.000000" stroke="none" 
	d="
M159.242920,353.923401 
	C158.192261,354.078674 157.453156,354.080933 156.348160,354.140076 
	C145.633347,351.770111 136.097610,347.848297 131.219452,337.591614 
	C129.064072,333.059753 128.228287,327.900269 126.780334,322.610596 
	C128.644150,319.499268 130.184494,316.472504 132.453873,314.161682 
	C145.031586,301.354279 157.787247,288.721680 170.480804,276.028046 
	C185.721924,260.786804 200.961121,245.543625 216.202652,230.302780 
	C227.802170,218.703766 239.375473,207.078339 251.015121,195.519714 
	C258.412445,188.173889 265.891937,180.910339 273.388794,173.665970 
	C274.168793,172.912277 275.317535,172.540222 276.680115,171.997314 
	C277.065002,172.003555 276.994385,172.068848 277.043152,172.368347 
	C277.507172,173.056915 277.922424,173.445999 278.250366,173.839081 
	C278.162994,173.843094 278.198761,173.671875 278.252747,174.000031 
	C278.975739,174.825500 279.644684,175.322830 280.243561,175.850494 
	C280.173462,175.880844 280.147736,175.730225 280.236145,176.001617 
	C280.640350,176.465958 280.956085,176.658890 281.201721,176.862823 
	C281.131561,176.873825 281.144958,176.732452 281.234253,177.003418 
	C281.639099,177.467545 281.954681,177.660721 282.187378,177.849457 
	C282.104523,177.845016 282.147156,177.684601 282.238647,177.968689 
	C282.839111,178.513260 283.348083,178.773758 284.180481,179.104309 
	C284.928162,179.295578 285.352386,179.416748 285.791626,179.801575 
	C285.864471,180.412155 285.922333,180.759079 286.044739,181.400909 
	C286.714813,182.136871 287.320374,182.577927 288.247009,183.121643 
	C291.032654,185.861908 293.497223,188.499512 296.018311,191.422470 
	C296.453888,192.113190 296.833038,192.518539 297.139374,192.928879 
	C297.066559,192.933884 297.074799,192.788147 297.201660,193.054199 
	C297.846588,193.558365 298.364716,193.796478 299.197754,194.143738 
	C300.995880,195.878693 302.479034,197.504501 304.018585,199.416245 
	C304.452026,200.111572 304.829071,200.520966 305.144379,200.943832 
	C305.082642,200.957291 305.071777,200.831375 305.182251,201.079041 
	C305.588226,201.523621 305.883759,201.720535 306.133423,201.882416 
	C306.087555,201.847397 306.171387,201.768066 306.171204,202.121002 
	C306.865448,202.914963 307.559875,203.355957 308.286255,203.755707 
	C308.318207,203.714462 308.418427,203.685486 308.418427,203.685486 
	C306.883911,206.018143 305.664551,208.654877 303.759125,210.629684 
	C296.366211,218.291748 288.755127,225.743317 281.225250,233.273209 
	C242.606445,271.892059 203.995239,310.518433 165.343948,349.104706 
	C163.599808,350.845886 161.492599,352.223450 159.242920,353.923401 
z"/>
<path fill="#FEFDFC" opacity="1.000000" stroke="none" 
	d="
M285.776642,179.537933 
	C285.352386,179.416748 284.928162,179.295578 284.081543,178.820999 
	C283.155151,178.206604 282.651154,177.945602 282.147156,177.684601 
	C282.147156,177.684601 282.104523,177.845016 282.141541,177.548340 
	C281.834015,177.078583 281.489471,176.905518 281.144958,176.732452 
	C281.144958,176.732452 281.131561,176.873825 281.155762,176.561996 
	C280.835876,176.076843 280.491821,175.903534 280.147736,175.730225 
	C280.147736,175.730225 280.173462,175.880844 280.204285,175.520264 
	C279.556335,174.663742 278.877563,174.167801 278.198761,173.671875 
	C278.198761,173.671875 278.162994,173.843094 278.235687,173.536194 
	C277.870392,172.842468 277.432373,172.455658 276.994385,172.068848 
	C276.994385,172.068848 277.065002,172.003555 277.040833,171.961151 
	C273.979279,168.598877 270.941925,165.279007 267.789459,161.648956 
	C277.690216,151.199509 287.629089,140.982605 297.750671,130.950027 
	C303.856598,124.897774 310.246460,119.131989 316.810425,113.075226 
	C322.672455,118.357262 328.232788,123.801521 333.869019,129.877930 
	C326.049103,138.436600 318.109344,146.319931 310.269592,154.301529 
	C302.055206,162.664520 293.936920,171.121841 285.776642,179.537933 
z"/>
<path fill="#E6E5E4" opacity="1.000000" stroke="none" 
	d="
M285.791626,179.801575 
	C293.936920,171.121841 302.055206,162.664520 310.269592,154.301529 
	C318.109344,146.319931 326.049103,138.436600 334.025970,130.168488 
	C342.314514,137.884811 350.522034,145.942703 359.009430,154.125916 
	C359.465424,154.633575 359.641541,155.015884 359.917908,155.698059 
	C358.892456,156.618027 357.545441,157.017365 356.673889,157.891022 
	C341.457245,173.145050 326.298798,188.457230 310.982666,204.107773 
	C310.236450,204.249619 309.635223,204.040436 308.726227,203.758377 
	C308.418427,203.685486 308.318207,203.714462 308.215088,203.451843 
	C307.465149,202.715500 306.818268,202.241776 306.171387,201.768066 
	C306.171387,201.768066 306.087555,201.847397 306.070160,201.600372 
	C305.725769,201.179367 305.398773,201.005371 305.071777,200.831375 
	C305.071777,200.831375 305.082642,200.957291 305.135010,200.641724 
	C304.778961,199.927567 304.370575,199.528946 303.962189,199.130325 
	C302.479034,197.504501 300.995880,195.878693 299.089294,193.862427 
	C298.135529,193.244019 297.605164,193.016083 297.074799,192.788147 
	C297.074799,192.788147 297.066559,192.933884 297.133270,192.627945 
	C296.787262,191.927048 296.374542,191.532074 295.961823,191.137100 
	C293.497223,188.499512 291.032654,185.861908 288.156006,182.848572 
	C287.156006,182.017227 286.568085,181.561615 285.980194,181.106018 
	C285.922333,180.759079 285.864471,180.412155 285.791626,179.801575 
z"/>
<path fill="#F67569" opacity="1.000000" stroke="none" 
	d="
M382.818909,81.723289 
	C371.319458,93.321365 360.072723,104.664482 349.157806,115.672951 
	C342.844666,109.744125 336.927917,104.187523 331.172760,98.782707 
	C340.900757,88.889198 350.337585,79.065674 360.044769,69.516975 
	C364.740814,64.897614 369.932343,64.739532 375.357483,68.690895 
	C378.156921,70.729828 380.521423,73.358681 383.140625,75.654587 
	C385.434021,77.664902 385.336029,79.557053 382.818909,81.723289 
z"/>
<path fill="#FEEAC6" opacity="1.000000" stroke="none" 
	d="
M101.987778,334.031616 
	C102.590622,332.792267 103.184578,331.941345 103.444084,330.998352 
	C104.427185,327.425995 106.619576,325.363861 110.341667,326.370148 
	C114.507050,327.496338 115.561073,331.078979 114.517166,334.658600 
	C112.401993,341.911621 109.716873,348.998840 107.248932,356.148285 
	C106.336594,358.791290 105.516014,361.478882 104.400101,364.035522 
	C102.875107,367.529388 100.187386,370.384796 96.319206,368.596680 
	C93.278557,367.191101 91.074356,364.330963 92.734428,360.004944 
	C95.980721,351.545441 98.818443,342.929138 101.987778,334.031616 
z"/>
<path fill="#EFE2C6" opacity="1.000000" stroke="none" 
	d="
M89.979912,382.660583 
	C88.788132,382.572723 87.587715,382.112915 86.150528,381.438080 
	C87.799133,379.549133 89.333725,379.210938 89.979912,382.660583 
z"/>
<path fill="#FAAC2C" opacity="1.000000" stroke="none" 
	d="
M306.171204,202.121002 
	C306.818268,202.241776 307.465149,202.715500 308.183136,203.493088 
	C307.559875,203.355957 306.865448,202.914963 306.171204,202.121002 
z"/>
<path fill="#FAAC2C" opacity="1.000000" stroke="none" 
	d="
M286.044739,181.400909 
	C286.568085,181.561615 287.156006,182.017227 287.834900,182.745911 
	C287.320374,182.577927 286.714813,182.136871 286.044739,181.400909 
z"/>
<path fill="#FAAC2C" opacity="1.000000" stroke="none" 
	d="
M278.252747,174.000031 
	C278.877563,174.167801 279.556335,174.663742 280.274414,175.489899 
	C279.644684,175.322830 278.975739,174.825500 278.252747,174.000031 
z"/>
<path fill="#FAAC2C" opacity="1.000000" stroke="none" 
	d="
M304.018585,199.416245 
	C304.370575,199.528946 304.778961,199.927567 305.196716,200.628265 
	C304.829071,200.520966 304.452026,200.111572 304.018585,199.416245 
z"/>
<path fill="#FAAC2C" opacity="1.000000" stroke="none" 
	d="
M297.201660,193.054199 
	C297.605164,193.016083 298.135529,193.244019 298.774353,193.753265 
	C298.364716,193.796478 297.846588,193.558365 297.201660,193.054199 
z"/>
<path fill="#FAAC2C" opacity="1.000000" stroke="none" 
	d="
M296.018311,191.422470 
	C296.374542,191.532074 296.787262,191.927048 297.206085,192.622940 
	C296.833038,192.518539 296.453888,192.113190 296.018311,191.422470 
z"/>
<path fill="#FAAC2C" opacity="1.000000" stroke="none" 
	d="
M282.238647,177.968689 
	C282.651154,177.945602 283.155151,178.206604 283.758118,178.750916 
	C283.348083,178.773758 282.839111,178.513260 282.238647,177.968689 
z"/>
<path fill="#FAAC2C" opacity="1.000000" stroke="none" 
	d="
M277.043152,172.368347 
	C277.432373,172.455658 277.870392,172.842468 278.323059,173.532181 
	C277.922424,173.445999 277.507172,173.056915 277.043152,172.368347 
z"/>
<path fill="#FAAC2C" opacity="1.000000" stroke="none" 
	d="
M305.182251,201.079041 
	C305.398773,201.005371 305.725769,201.179367 306.116028,201.635406 
	C305.883759,201.720535 305.588226,201.523621 305.182251,201.079041 
z"/>
<path fill="#FAAC2C" opacity="1.000000" stroke="none" 
	d="
M281.234253,177.003418 
	C281.489471,176.905518 281.834015,177.078583 282.224396,177.552765 
	C281.954681,177.660721 281.639099,177.467545 281.234253,177.003418 
z"/>
<path fill="#FAAC2C" opacity="1.000000" stroke="none" 
	d="
M280.236145,176.001617 
	C280.491821,175.903534 280.835876,176.076843 281.225891,176.550995 
	C280.956085,176.658890 280.640350,176.465958 280.236145,176.001617 
z"/>
</svg>